<svg width="64" height="64" viewBox="0 0 64 64" fill="none" xmlns="http://www.w3.org/2000/svg">
<path d="M61.3878 0H2.61224C1.17185 0 0 1.17185 0 2.61224V61.3878C0 62.8281 1.17185 64 2.61224 64H61.3878C62.8281 64 64 62.8281 64 61.3878V2.61224C64 1.17185 62.8281 0 61.3878 0ZM61.3878 61.3878H2.61224V11.7551H61.3878V61.3878ZM61.3878 9.14286H2.61224V2.61224H61.3878V9.14286Z" fill="#00094A"/>
<path d="M9.79592 4.57129H5.22449V7.18353H9.79592V4.57129Z" fill="#00094A"/>
<path d="M16.3266 4.57129H11.7551V7.18353H16.3266V4.57129Z" fill="#00094A"/>
<path d="M58.7755 4.57129H54.2041V7.18353H58.7755V4.57129Z" fill="#00094A"/>
<path d="M15.6735 39.1839H17.919C18.05 39.5409 18.1919 39.8869 18.344 40.221L16.7614 41.8129C16.2683 42.3059 15.9968 42.961 15.9968 43.6574C15.9968 44.3538 16.2685 45.0088 16.7614 45.5018L20.4576 49.1979C20.9507 49.691 21.6057 49.9626 22.3021 49.9626C22.9985 49.9626 23.6535 49.691 24.1439 49.2007L25.7385 47.6153C26.0725 47.7673 26.4186 47.9092 26.7756 48.0402V50.2858C26.7756 51.7262 27.9474 52.8981 29.3878 52.8981H34.6123C36.0527 52.8981 37.2245 51.7262 37.2247 50.2858V48.0402C37.5816 47.9092 37.9276 47.7674 38.2617 47.6152L39.8536 49.1978C40.3467 49.6909 41.0017 49.9624 41.6981 49.9624C42.3946 49.9624 43.0496 49.6908 43.5425 49.1978L47.2387 45.5016C47.7318 45.0086 48.0033 44.3535 48.0033 43.6571C48.0033 42.9607 47.7318 42.3057 47.2415 41.8154L45.6561 40.2207C45.8081 39.8867 45.95 39.5406 46.081 39.1836H48.3266C49.767 39.1836 50.9388 38.0118 50.9388 36.5714V31.3469C50.9388 29.9065 49.767 28.7347 48.3266 28.7347H46.081C45.95 28.3777 45.8081 28.0317 45.656 27.6976L47.2386 26.1057C47.7317 25.6126 48.0032 24.9576 48.0032 24.2612C48.0032 23.5648 47.7315 22.9097 47.2386 22.4168L43.5424 18.7206C43.0493 18.2276 42.3943 17.956 41.6979 17.956C41.0015 17.956 40.3464 18.2276 39.8561 18.7179L38.2615 20.3033C37.9275 20.1512 37.5814 20.0094 37.2244 19.8784V17.6328C37.2244 16.1924 36.0526 15.0205 34.6122 15.0205H29.3877C27.9473 15.0205 26.7754 16.1924 26.7754 17.6328V19.8784C26.4185 20.0094 26.0725 20.1512 25.7384 20.3034L24.1465 18.7208C23.6534 18.2277 22.9984 17.9561 22.302 17.9561C21.6055 17.9561 20.9505 18.2278 20.4576 18.7208L16.7614 22.4169C16.2683 22.91 15.9968 23.565 15.9968 24.2615C15.9968 24.9579 16.2683 25.6129 16.7587 26.1032L18.344 27.6979C18.192 28.0318 18.0501 28.378 17.9191 28.7349H15.6735C14.2331 28.7349 13.0613 29.9068 13.0613 31.3472V36.5717C13.0613 38.0121 14.2331 39.1839 15.6735 39.1839ZM15.6735 31.3469H18.8607C19.4375 31.3469 19.946 30.9685 20.1117 30.416C20.3694 29.5573 20.6941 28.7677 21.077 28.0695C21.3554 27.5618 21.2662 26.9314 20.8579 26.5207L18.6088 24.2641L22.3021 20.5705L24.5617 22.8169C24.9723 23.2252 25.6027 23.3141 26.1105 23.0359C26.8087 22.6531 27.5983 22.3284 28.4571 22.0707C29.0097 21.9051 29.3879 21.3965 29.3879 20.8197V17.6328H34.6124V20.82C34.6124 21.3967 34.9908 21.9052 35.5433 22.071C36.4021 22.3287 37.1916 22.6534 37.8899 23.0362C38.3976 23.3146 39.0278 23.2256 39.4387 22.8171L41.6953 20.568L45.3889 24.2613L43.1425 26.5209C42.7342 26.9316 42.645 27.5619 42.9234 28.0697C43.3062 28.768 43.6309 29.5575 43.8886 30.4163C44.0543 30.9689 44.5629 31.3472 45.1396 31.3472H48.3266V36.5717H45.1396C44.5629 36.5717 44.0544 36.95 43.8886 37.5025C43.6309 38.3613 43.3062 39.1509 42.9234 39.8491C42.645 40.3568 42.7342 40.9871 43.1425 41.3979L45.3916 43.6545L41.6983 47.3481L39.4387 45.1017C39.0278 44.6934 38.3976 44.6042 37.8899 44.8826C37.1916 45.2655 36.4021 45.5902 35.5433 45.8479C34.9907 46.0135 34.6124 46.5221 34.6124 47.0989V50.2858H29.3879V47.0987C29.3879 46.522 29.0096 46.0135 28.4571 45.8477C27.5983 45.59 26.8087 45.2653 26.1105 44.8825C25.9131 44.7744 25.6972 44.7217 25.4829 44.7217C25.1458 44.7217 24.8127 44.852 24.5614 45.1014L22.3048 47.3506L18.6113 43.6572L20.8577 41.3977C21.2659 40.987 21.3552 40.3567 21.0767 39.8489C20.6939 39.1506 20.3692 38.361 20.1115 37.5023C19.9459 36.9497 19.4372 36.5714 18.8605 36.5714H15.6735V31.3469Z" fill="#00094A"/>
<path d="M32 40.4899C35.601 40.4899 38.5306 37.5603 38.5306 33.9593C38.5306 30.3583 35.601 27.4287 32 27.4287C28.399 27.4287 25.4694 30.3583 25.4694 33.9593C25.4694 37.5603 28.399 40.4899 32 40.4899ZM32 30.041C34.1606 30.041 35.9183 31.7987 35.9183 33.9593C35.9183 36.1199 34.1606 37.8777 32 37.8777C29.8394 37.8777 28.0816 36.1199 28.0816 33.9593C28.0816 31.7987 29.8394 30.041 32 30.041Z" fill="#00094A"/>
<path d="M52.2449 19.5918H49.6327V22.204H52.2449V19.5918Z" fill="#00094A"/>
<path d="M56.1633 19.5918H53.551V22.204H56.1633V19.5918Z" fill="#00094A"/>
<path d="M60.0816 19.5918H57.4694V22.204H60.0816V19.5918Z" fill="#00094A"/>
<path d="M6.53058 45.7144H3.91833V48.3266H6.53058V45.7144Z" fill="#00094A"/>
<path d="M10.449 45.7144H7.83679V48.3266H10.449V45.7144Z" fill="#00094A"/>
<path d="M14.3674 45.7144H11.7551V48.3266H14.3674V45.7144Z" fill="#00094A"/>
<path d="M55.5102 56.1631H8.48975V58.7753H55.5102V56.1631Z" fill="#00094A"/>
</svg>
