<svg width="64" height="64" viewBox="0 0 64 64" fill="none" xmlns="http://www.w3.org/2000/svg">
<path d="M57.8822 13.6535C57.4509 13.0468 56.9984 12.4562 56.5269 11.8822C50.7016 4.79317 41.87 0.263672 32.0001 0.263672C22.13 0.263672 13.2984 4.79317 7.47299 11.8822C7.00116 12.4562 6.54897 13.0467 6.11754 13.6535C2.4327 18.837 0.263672 25.17 0.263672 32C0.263672 38.8691 2.45813 45.2355 6.18179 50.4352C6.61535 51.0404 7.06879 51.6303 7.54275 52.2025C13.3685 59.2432 22.1692 63.7365 32.0001 63.7365C41.8309 63.7365 50.6317 59.2433 56.4573 52.2025C56.9311 51.6303 57.3847 51.0404 57.8181 50.4352C61.5416 45.2355 63.7362 38.8691 63.7362 32C63.7362 25.17 61.5674 18.837 57.8822 13.6535ZM54.7079 13.1802C54.2027 13.5051 53.6726 13.8218 53.1153 14.1283C51.4604 15.0386 49.6418 15.8271 47.6967 16.4886C46.9377 14.0769 45.9964 11.8314 44.8847 9.81016C43.4834 7.26186 41.8775 5.18936 40.1283 3.63334C45.9066 5.29173 50.9645 8.67135 54.7079 13.1802ZM48.3464 22.8651C48.6666 22.8651 48.9698 22.937 49.2435 23.0628C49.987 23.4043 50.5058 24.1542 50.5058 25.0247C50.5058 25.6991 50.1948 26.3018 49.7089 26.698C49.337 27.0012 48.8627 27.1839 48.3464 27.1839C48.0456 27.1839 47.7594 27.1221 47.499 27.0104C46.7284 26.6803 46.1867 25.9147 46.1867 25.0246C46.1867 24.3304 46.5175 23.7132 47.028 23.3179C47.3932 23.0353 47.8498 22.8651 48.3464 22.8651ZM33.1151 2.56888C36.7773 3.06104 40.2277 5.96973 42.9307 10.8848C43.9714 12.7769 44.8539 14.8826 45.5677 17.1474C41.7452 18.2177 37.5162 18.8229 33.1151 18.9104V2.56888ZM33.1151 21.1407C37.7206 21.0523 42.1578 20.4167 46.1809 19.2898C46.3261 19.8531 46.461 20.4253 46.5863 21.0048C45.0399 21.6844 43.9569 23.2302 43.9569 25.0247C43.9569 27.2121 45.5653 29.0302 47.6615 29.3601C47.6866 29.8888 47.7043 30.4209 47.7142 30.9551H36.2626C35.8807 29.3962 34.6639 28.1618 33.1151 27.7546V21.1407ZM46.1469 44.8408C42.1329 43.7194 37.7074 43.0876 33.1151 42.9995V36.2454C34.6174 35.8507 35.8067 34.6776 36.2256 33.1851H47.7114C47.6246 37.2839 47.0892 41.2325 46.1469 44.8408ZM46.6037 52.9335C46.6036 54.1243 45.6349 55.093 44.4443 55.093C44.4185 55.093 44.3937 55.09 44.3681 55.0891C43.5449 55.06 42.8389 54.5695 42.5002 53.8676C42.3634 53.5846 42.2846 53.2685 42.2846 52.9335C42.2846 51.8687 43.0596 50.9841 44.0744 50.8079C44.1948 50.7868 44.318 50.7739 44.4442 50.7739C45.1399 50.7739 45.758 51.1059 46.1533 51.6184C46.4346 51.9834 46.6037 52.4384 46.6037 52.9335ZM30.8851 2.56888V18.9104C26.4837 18.8229 22.2549 18.2177 18.432 17.1477C18.6012 16.611 18.7799 16.0833 18.9678 15.5655C19.0581 15.571 19.1486 15.5747 19.2401 15.5747C21.6603 15.5747 23.6296 13.6055 23.6296 11.1852C23.6296 10.1255 23.252 9.15249 22.6247 8.39324C25.042 4.9879 27.8927 2.97094 30.8851 2.56888ZM17.8192 19.2898C21.8421 20.4171 26.2796 21.0523 30.8851 21.1407V27.7546C29.336 28.1618 28.1195 29.3961 27.7373 30.9551H16.2856C16.3622 26.8553 16.8872 22.904 17.8192 19.2898ZM17.0806 11.1852C17.0806 9.99437 18.0493 9.02566 19.2401 9.02566C19.3454 9.02566 19.4479 9.03576 19.5491 9.0503C20.3631 9.16778 21.0304 9.73873 21.2862 10.4995C21.3587 10.7152 21.3997 10.9453 21.3997 11.1852C21.3997 12.144 20.7712 12.958 19.9047 13.2389C19.6951 13.3072 19.4721 13.3448 19.2401 13.3448C18.6401 13.3448 18.097 13.0985 17.7053 12.7023C17.3195 12.3118 17.0806 11.7761 17.0806 11.1852ZM23.8719 3.63338C22.7937 4.59228 21.7699 5.74701 20.8156 7.08934C20.326 6.9004 19.7952 6.79576 19.2401 6.79576C16.8199 6.79576 14.8506 8.76486 14.8506 11.1853C14.8506 12.7252 15.6486 14.0816 16.8517 14.8652C16.6598 15.3973 16.4765 15.9386 16.3034 16.4887C14.3583 15.8272 12.5396 15.0387 10.8846 14.1284C10.3274 13.8218 9.79715 13.5052 9.29198 13.1802C13.0353 8.67135 18.0933 5.29173 23.8719 3.63338ZM7.92892 14.9533C8.52433 15.3425 9.15036 15.7195 9.81002 16.0823C11.6058 17.07 13.579 17.9224 15.6878 18.6326C14.6922 22.4579 14.1334 26.6329 14.0554 30.9551H2.51288C2.72095 25.0094 4.69599 19.5049 7.92892 14.9533ZM16.5295 37.2949C17.1121 37.6819 17.4973 38.3435 17.4973 39.0943C17.4973 39.645 17.2883 40.1469 16.9475 40.5287C16.5518 40.9724 15.9778 41.2536 15.3384 41.2536H15.3381C15.1508 41.2536 14.9699 41.2269 14.7962 41.182C13.8673 40.9405 13.1785 40.0973 13.1785 39.0943C13.1785 38.2865 13.6246 37.5819 14.2831 37.2117C14.5952 37.036 14.9547 36.9345 15.3381 36.9345C15.7783 36.9345 16.1877 37.0679 16.5295 37.2949ZM2.51718 33.1851H14.0585C14.0698 33.752 14.0897 34.3169 14.1175 34.8786C12.2893 35.4086 10.9486 37.097 10.9486 39.0943C10.9486 41.4809 12.8643 43.4278 15.2389 43.4807C15.3867 44.1621 15.5477 44.8343 15.7217 45.4959C13.6001 46.2085 11.6156 47.0649 9.81034 48.0578C9.17574 48.4066 8.57237 48.7689 7.99747 49.1422C4.74954 44.6074 2.75277 39.1191 2.51718 33.1851ZM9.36853 50.9101C9.85073 50.6026 10.3556 50.3027 10.8846 50.0117C12.5512 49.0951 14.3837 48.302 16.3438 47.6377C17.0958 50.0013 18.023 52.2043 19.1153 54.1898C20.5169 56.7382 22.1227 58.8112 23.8723 60.3674C18.1328 58.72 13.1041 55.3736 9.36853 50.9101ZM30.8851 61.4313C27.2226 60.9389 23.7722 58.0304 21.0692 53.1156C20.0482 51.2592 19.1798 49.1969 18.4733 46.9811C22.2851 45.9175 26.4996 45.3169 30.8851 45.2294V61.4313ZM30.8851 42.9994C26.2925 43.0876 21.8669 43.7194 17.8528 44.8408C17.6922 44.2249 17.5435 43.5988 17.4067 42.9643C18.7867 42.2235 19.7272 40.7665 19.7272 39.0943C19.7272 37.021 18.2824 35.2801 16.3471 34.8229C16.3193 34.2801 16.3003 33.7336 16.2884 33.1851H27.7743C28.1935 34.6776 29.3828 35.8507 30.8851 36.2454V42.9994ZM30.8851 33.846C30.6098 33.6789 30.3739 33.4534 30.1967 33.1851C29.9722 32.8445 29.8406 32.4379 29.8406 32C29.8406 31.6211 29.9394 31.265 30.1117 30.9551C30.2949 30.6249 30.563 30.3492 30.8851 30.154C31.211 29.9564 31.5919 29.8404 32.0001 29.8404C32.4083 29.8404 32.7889 29.9564 33.1151 30.154C33.4373 30.3492 33.7053 30.6249 33.8886 30.9551C34.0609 31.265 34.1597 31.6211 34.1597 32C34.1597 32.4379 34.0278 32.8445 33.8032 33.1851C33.6263 33.4534 33.3905 33.6789 33.1151 33.846C32.7889 34.0436 32.4083 34.1596 32.0001 34.1596C31.5919 34.1596 31.211 34.0436 30.8851 33.846ZM33.1151 61.4313V45.2294C37.5006 45.3169 41.7149 45.9175 45.5267 46.9811C45.354 47.5224 45.1725 48.0557 44.9807 48.5783C44.8046 48.5563 44.6258 48.544 44.4439 48.544C42.0238 48.544 40.0547 50.5132 40.0547 52.9335C40.0547 54.0622 40.4832 55.0927 41.186 55.8714C38.8097 59.1172 36.0295 61.0396 33.1151 61.4313ZM40.1277 60.3674C41.156 59.4525 42.1343 58.3584 43.0509 57.095C43.489 57.2419 43.9573 57.323 44.4443 57.323C46.8643 57.323 48.8335 55.3537 48.8337 52.9335C48.8335 51.4887 48.1316 50.2052 47.0509 49.4047C47.2642 48.827 47.4653 48.2371 47.656 47.6377C49.6164 48.302 51.4488 49.0951 53.1153 50.0118C53.6443 50.3028 54.1493 50.6026 54.6316 50.9104C50.8958 55.3739 45.8673 58.72 40.1277 60.3674ZM56.0024 49.1422C55.4275 48.7689 54.8241 48.4066 54.1899 48.0578C52.3846 47.0649 50.3999 46.2085 48.2781 45.4959C49.2839 41.677 49.8533 37.5057 49.9415 33.1851H61.4829C61.4983 32.7922 61.5063 32.3969 61.5063 32C61.5063 32.0003 61.5063 32.0003 61.5063 32.0003C61.5063 32.3969 61.4983 32.7919 61.4829 33.1851C61.2471 39.1191 59.2504 44.6074 56.0024 49.1422ZM61.487 30.9551H49.9445C49.9335 30.3455 49.913 29.7388 49.8829 29.1357C51.5475 28.5112 52.7357 26.9046 52.7357 25.0247C52.7357 22.7547 51.0035 20.8815 48.7916 20.6575C48.645 19.9728 48.4853 19.2975 48.3123 18.6326C50.4211 17.9224 52.3941 17.07 54.1898 16.0823C54.8496 15.7194 55.4756 15.3422 56.0712 14.9533C59.3039 19.5049 61.2791 25.0091 61.487 30.9551Z" fill="#00094A"/>
</svg>

