<svg width="52" height="64" viewBox="0 0 52 64" fill="none" xmlns="http://www.w3.org/2000/svg">
<path fill-rule="evenodd" clip-rule="evenodd" d="M41.9999 51.2C41.4111 51.2 40.9332 51.6779 40.9332 52.2667V54.4C40.9332 54.9888 41.4111 55.4667 41.9999 55.4667C42.5887 55.4667 43.0666 54.9888 43.0666 54.4V52.2667C43.0666 51.6779 42.5887 51.2 41.9999 51.2ZM43.0666 39.4667C43.0666 38.8779 42.5887 38.4 41.9999 38.4C41.4111 38.4 40.9332 38.8779 40.9332 39.4667V48C40.9332 48.5888 41.4111 49.0667 41.9999 49.0667C42.5887 49.0667 43.0666 48.5888 43.0666 48V39.4667ZM49.4666 27.7333H2.53324C1.3567 27.7333 0.399902 28.6901 0.399902 29.8667V34.1333C0.399902 35.3099 1.3567 36.2667 2.53324 36.2667V58.6667C2.53324 61.6075 4.92577 64 7.86657 64H44.1332C47.074 64 49.4666 61.6075 49.4666 58.6667V39.4667C49.4666 38.8779 48.9887 38.4 48.3999 38.4C47.8111 38.4 47.3332 38.8779 47.3332 39.4667V58.6667C47.3332 60.4309 45.8975 61.8667 44.1332 61.8667H7.86657C6.1023 61.8667 4.66657 60.4309 4.66657 58.6667V35.2C4.66657 34.6112 4.1887 34.1333 3.5999 34.1333H2.53324V29.8667H49.4666V34.1333H7.86657C7.27777 34.1333 6.7999 34.6112 6.7999 35.2C6.7999 35.7888 7.27777 36.2667 7.86657 36.2667H49.4666C50.6431 36.2667 51.5999 35.3099 51.5999 34.1333V29.8667C51.5999 28.6901 50.6431 27.7333 49.4666 27.7333ZM23.8666 17.5637V24.5333C23.8666 25.1221 24.3444 25.6 24.9332 25.6C25.522 25.6 25.9999 25.1221 25.9999 24.5333V17.0667C25.9999 16.7317 25.8399 16.4139 25.5722 16.2123C24.4884 15.3973 23.8666 14.1536 23.8666 12.8C23.8666 10.1163 26.449 5.56373 28.1332 2.96853C29.8175 5.56373 32.3999 10.1163 32.3999 12.8C32.3999 14.8277 30.9599 16.5867 28.977 16.9835C28.3988 17.0987 28.0234 17.6608 28.1396 18.2379C28.2548 18.816 28.817 19.1872 29.394 19.0752C32.3722 18.4811 34.5332 15.8421 34.5332 12.8C34.5332 8.24427 29.2266 0.762667 29.0015 0.446933C28.6004 -0.114133 27.666 -0.114133 27.265 0.446933C27.0399 0.762667 21.7332 8.24427 21.7332 12.8C21.7332 14.6283 22.4895 16.3243 23.8666 17.5637ZM3.5999 25.6H5.73324C6.32204 25.6 6.7999 25.1221 6.7999 24.5333C6.7999 23.9445 6.32204 23.4667 5.73324 23.4667H4.66657V21.3333H9.9999C10.5887 21.3333 11.0666 20.8555 11.0666 20.2667C11.0666 19.6779 10.5887 19.2 9.9999 19.2H4.66657V17.0667H5.73324C6.32204 17.0667 6.7999 16.5888 6.7999 16C6.7999 15.4112 6.32204 14.9333 5.73324 14.9333H4.66657V12.8H5.73324C6.32204 12.8 6.7999 12.3221 6.7999 11.7333C6.7999 11.1445 6.32204 10.6667 5.73324 10.6667H4.66657V8.53333H9.9999C10.5887 8.53333 11.0666 8.05547 11.0666 7.46667C11.0666 6.87787 10.5887 6.4 9.9999 6.4H4.66657V2.13333H17.4666V24.5333C17.4666 25.1221 17.9444 25.6 18.5332 25.6C19.122 25.6 19.5999 25.1221 19.5999 24.5333V1.06667C19.5999 0.477867 19.122 0 18.5332 0H3.5999C3.0111 0 2.53324 0.477867 2.53324 1.06667V24.5333C2.53324 25.1221 3.0111 25.6 3.5999 25.6ZM41.9999 13.8667V24.5333C41.9999 25.1221 42.4778 25.6 43.0666 25.6C43.6554 25.6 44.1332 25.1221 44.1332 24.5333V13.8667C44.1332 13.2779 43.6554 12.8 43.0666 12.8C42.4778 12.8 41.9999 13.2779 41.9999 13.8667ZM48.3999 12.8C47.8111 12.8 47.3332 13.2779 47.3332 13.8667V24.5333C47.3332 25.1221 47.8111 25.6 48.3999 25.6C48.9887 25.6 49.4666 25.1221 49.4666 24.5333V13.8667C49.4666 13.2779 48.9887 12.8 48.3999 12.8ZM37.7332 25.6C38.322 25.6 38.7999 25.1221 38.7999 24.5333V9.90613L43.0666 3.07947L46.4756 8.53333H41.9999C41.4111 8.53333 40.9332 9.0112 40.9332 9.6C40.9332 10.1888 41.4111 10.6667 41.9999 10.6667H48.3999C48.7882 10.6667 49.1444 10.4565 49.3332 10.1173C49.521 9.77813 49.5103 9.3632 49.3044 9.03467L43.9711 0.501333C43.5807 -0.122667 42.5524 -0.122667 42.162 0.501333L36.8287 9.03467C36.7231 9.20427 36.6666 9.39947 36.6666 9.6V24.5333C36.6666 25.1221 37.1444 25.6 37.7332 25.6ZM32.3999 21.3333V24.5333C32.3999 25.1221 31.922 25.6 31.3332 25.6C30.7444 25.6 30.2666 25.1221 30.2666 24.5333V21.3333C30.2666 20.7445 30.7444 20.2667 31.3332 20.2667C31.922 20.2667 32.3999 20.7445 32.3999 21.3333Z" fill="#00094A"/>
</svg>
